<svg xmlns="http://www.w3.org/2000/svg" viewBox="0 0 2732 2732">
  <rect width="2732" height="2732" fill="#101827"/>
  <circle cx="672" cy="536" r="420" fill="#ef4444" opacity="0.18"/>
  <circle cx="2152" cy="648" r="340" fill="#0ea5e9" opacity="0.14"/>
  <g transform="translate(866 734)">
    <path d="M296 310h704v174H296z" fill="#f8fafc"/>
    <path d="M324 364c0-178 144-322 322-322s322 144 322 322H786c0-78-62-140-140-140s-140 62-140 140z" fill="#f8fafc"/>
    <path d="M384 430h528v142H384z" fill="#94a3b8"/>
    <rect x="170" y="490" width="952" height="788" rx="248" fill="#ef4444"/>
    <rect x="238" y="558" width="816" height="652" rx="192" fill="#dc2626"/>
    <path d="M238 558h816v334H238z" fill="#22c55e" opacity="0.9"/>
    <path d="M362 642h172v420H362z" fill="#f8fafc" opacity="0.2"/>
    <path d="M264 1248h764v96H264z" fill="#f8fafc"/>
    <text x="646" y="934" text-anchor="middle" font-family="Arial, Helvetica, sans-serif" font-size="286" font-weight="800" fill="#ffffff">P13</text>
  </g>
  <text x="1366" y="2250" text-anchor="middle" font-family="Arial, Helvetica, sans-serif" font-size="132" font-weight="800" fill="#f8fafc">Controle Gas</text>
</svg>
